<?xml version="1.0" encoding="UTF-8"?>
<svg id="Layer_1" xmlns="http://www.w3.org/2000/svg" version="1.1" viewBox="0 0 90.31 26.99">
  <!-- Generator: Adobe Illustrator 29.5.1, SVG Export Plug-In . SVG Version: 2.1.0 Build 141)  -->
  <defs>
    <style>
      .st0, .st1 {
        fill: #fff;
      }

      .st1 {
        font-family: PlantagenetCherokee, 'Plantagenet Cherokee';
        font-size: 24px;
      }
    </style>
  </defs>
  <text class="st1" transform="translate(13.61 25.21)"><tspan x="0" y="0">Statelis</tspan></text>
  <path class="st0" d="M19.2.74l1.39,4.13-2.25.88-1.39-4.13,2.25-.88ZM2.05,12.19l.63-2.33,9.05,2.79-.63,2.33-9.05-2.79ZM5.54,5.38l7.62,4.59-1.16,2.11-7.62-4.59,1.16-2.12h0ZM9.72,1.96l5.49,5.74-1.66,1.75-5.49-5.74,1.66-1.75ZM14.71.79l3.07,5.16-2.02,1.33-3.07-5.16,2.02-1.33Z"/>
  <rect class="st0" x="1.23" y="14.05" width="2.49" height="2.49" transform="translate(2.65 -.2) rotate(9.84)"/>
  <rect class="st0" x="4.81" y="14.65" width="2.49" height="2.49" transform="translate(2.81 -.8) rotate(9.84)"/>
  <rect class="st0" x="8.23" y="15.25" width="2.49" height="2.49" transform="translate(2.96 -1.38) rotate(9.84)"/>
  <rect class="st0" x=".81" y="18.51" width="2.49" height="2.49"/>
  <rect class="st0" x="4.44" y="18.51" width="2.49" height="2.49"/>
  <rect class="st0" x="7.95" y="18.51" width="2.49" height="2.49"/>
</svg>